<svg version="1.1" viewBox="0.0 0.0 960.0 540.0" fill="none" stroke="none" stroke-linecap="square" stroke-miterlimit="10" xmlns:xlink="http://www.w3.org/1999/xlink" xmlns="http://www.w3.org/2000/svg"><clipPath id="g37a2a404650_0_755.0"><path d="m0 0l960.0 0l0 540.0l-960.0 0l0 -540.0z" clip-rule="nonzero"/></clipPath><g clip-path="url(#g37a2a404650_0_755.0)"><path fill="#000000" fill-opacity="0.0" d="m0 0l960.0 0l0 540.0l-960.0 0z" fill-rule="evenodd"/><path fill="#990000" d="m92.8399 66.58558l0 0c7.5929794 0 13.748306 -6.155327 13.748306 -13.74831l143.90497 0l0 0c0 7.5929832 6.1553345 13.74831 13.748291 13.74831l0 54.991577c-7.5929565 0 -13.748291 6.155327 -13.748291 13.748299l-143.90497 0c0 -7.592972 -6.155327 -13.748299 -13.748306 -13.748299z" fill-rule="evenodd"/><path stroke="#595959" stroke-width="1.0" stroke-linejoin="round" stroke-linecap="butt" d="m92.8399 66.58558l0 0c7.5929794 0 13.748306 -6.155327 13.748306 -13.74831l143.90497 0l0 0c0 7.5929832 6.1553345 13.74831 13.748291 13.74831l0 54.991577c-7.5929565 0 -13.748291 6.155327 -13.748291 13.748299l-143.90497 0c0 -7.592972 -6.155327 -13.748299 -13.748306 -13.748299z" fill-rule="evenodd"/><path fill="#ffffff" d="m137.46632 103.681366l0 -19.078125l5.765625 0l3.453125 13.015625l3.421875 -13.015625l5.78125 0l0 19.078125l-3.578125 0l0 -15.015625l-3.78125 15.015625l-3.71875 0l-3.765625 -15.015625l0 15.015625l-3.578125 0zm24.954865 -9.609375l-3.3125 -0.59375q0.5625 -2.0 1.921875 -2.96875q1.375 -0.96875 4.0625 -0.96875q2.453125 0 3.640625 0.578125q1.203125 0.578125 1.6875 1.484375q0.5 0.890625 0.5 3.265625l-0.046875 4.265625q0 1.828125 0.171875 2.703125q0.171875 0.859375 0.65625 1.84375l-3.609375 0q-0.140625 -0.359375 -0.359375 -1.078125q-0.09375 -0.328125 -0.125 -0.4375q-0.9375 0.921875 -2.015625 1.375q-1.0625 0.453125 -2.265625 0.453125q-2.140625 0 -3.375 -1.15625q-1.21875 -1.15625 -1.21875 -2.9375q0 -1.171875 0.546875 -2.078125q0.5625 -0.921875 1.578125 -1.40625q1.015625 -0.484375 2.90625 -0.859375q2.5625 -0.484375 3.5625 -0.890625l0 -0.375q0 -1.046875 -0.53125 -1.5q-0.515625 -0.453125 -1.96875 -0.453125q-0.96875 0 -1.515625 0.390625q-0.546875 0.390625 -0.890625 1.34375zm4.90625 2.96875q-0.703125 0.234375 -2.234375 0.5625q-1.515625 0.328125 -1.984375 0.640625q-0.71875 0.5 -0.71875 1.28125q0 0.765625 0.5625 1.328125q0.578125 0.5625 1.46875 0.5625q0.984375 0 1.890625 -0.65625q0.65625 -0.484375 0.859375 -1.203125q0.15625 -0.46875 0.15625 -1.78125l0 -0.734375zm5.903061 2.703125l3.671875 -0.5625q0.234375 1.0625 0.953125 1.625q0.71875 0.546875 2.0 0.546875q1.421875 0 2.140625 -0.515625q0.46875 -0.375 0.46875 -0.984375q0 -0.421875 -0.25 -0.6875q-0.28125 -0.265625 -1.234375 -0.484375q-4.421875 -0.96875 -5.609375 -1.78125q-1.640625 -1.125 -1.640625 -3.109375q0 -1.796875 1.421875 -3.015625q1.421875 -1.234375 4.40625 -1.234375q2.828125 0 4.203125 0.9375q1.390625 0.921875 1.90625 2.71875l-3.4375 0.640625q-0.234375 -0.796875 -0.859375 -1.21875q-0.609375 -0.4375 -1.75 -0.4375q-1.4375 0 -2.0625 0.390625q-0.421875 0.296875 -0.421875 0.75q0 0.390625 0.359375 0.65625q0.5 0.375 3.421875 1.046875q2.921875 0.65625 4.078125 1.609375q1.140625 0.984375 1.140625 2.71875q0 1.90625 -1.59375 3.28125q-1.578125 1.359375 -4.6875 1.359375q-2.828125 0 -4.484375 -1.140625q-1.640625 -1.15625 -2.140625 -3.109375zm22.449936 -9.890625l0 2.921875l-2.5 0l0 5.5625q0 1.703125 0.0625 1.984375q0.078125 0.28125 0.328125 0.46875q0.265625 0.171875 0.625 0.171875q0.515625 0 1.46875 -0.359375l0.3125 2.84375q-1.265625 0.546875 -2.890625 0.546875q-0.984375 0 -1.78125 -0.328125q-0.796875 -0.328125 -1.171875 -0.859375q-0.359375 -0.53125 -0.5 -1.421875q-0.125 -0.640625 -0.125 -2.578125l0 -6.03125l-1.671875 0l0 -2.921875l1.671875 0l0 -2.734375l3.671875 -2.140625l0 4.875l2.5 0zm10.5486145 9.421875l3.640625 0.625q-0.703125 2.0 -2.21875 3.046875q-1.515625 1.046875 -3.796875 1.046875q-3.609375 0 -5.328125 -2.359375q-1.375 -1.890625 -1.375 -4.765625q0 -3.4375 1.796875 -5.375q1.796875 -1.953125 4.546875 -1.953125q3.078125 0 4.859375 2.046875q1.78125 2.03125 1.703125 6.234375l-9.15625 0q0.046875 1.625 0.890625 2.53125q0.84375 0.90625 2.109375 0.90625q0.859375 0 1.4375 -0.46875q0.59375 -0.46875 0.890625 -1.515625zm0.203125 -3.6875q-0.03125 -1.59375 -0.8125 -2.421875q-0.78125 -0.828125 -1.90625 -0.828125q-1.203125 0 -1.984375 0.875q-0.78125 0.875 -0.765625 2.375l5.46875 0zm10.121811 8.09375l-3.671875 0l0 -13.828125l3.40625 0l0 1.96875q0.875 -1.390625 1.5625 -1.828125q0.703125 -0.453125 1.578125 -0.453125q1.25 0 2.421875 0.703125l-1.140625 3.1875q-0.921875 -0.609375 -1.71875 -0.609375q-0.765625 0 -1.296875 0.421875q-0.53125 0.421875 -0.84375 1.53125q-0.296875 1.109375 -0.296875 4.640625l0 4.265625z" fill-rule="nonzero"/><path fill="#b45f06" d="m351.88452 66.58558l0 0c0 -7.5929832 6.1553345 -13.74831 13.748291 -13.74831l125.85773 0c3.6462708 0 7.143219 1.4484787 9.721527 4.026787c2.578308 2.578308 4.026764 6.075245 4.026764 9.721523l0 54.991577c0 7.5929794 -6.155304 13.748299 -13.748291 13.748299l-125.85773 0c-7.5929565 0 -13.748291 -6.155319 -13.748291 -13.748299z" fill-rule="evenodd"/><path stroke="#595959" stroke-width="1.0" stroke-linejoin="round" stroke-linecap="butt" d="m351.88452 66.58558l0 0c0 -7.5929832 6.1553345 -13.74831 13.748291 -13.74831l125.85773 0c3.6462708 0 7.143219 1.4484787 9.721527 4.026787c2.578308 2.578308 4.026764 6.075245 4.026764 9.721523l0 54.991577c0 7.5929794 -6.155304 13.748299 -13.748291 13.748299l-125.85773 0c-7.5929565 0 -13.748291 -6.155319 -13.748291 -13.748299z" fill-rule="evenodd"/><path fill="#ffffff" d="m376.40817 103.681366l-4.546875 -19.078125l3.9375 0l2.875 13.109375l3.5 -13.109375l4.578125 0l3.34375 13.328125l2.921875 -13.328125l3.890625 0l-4.640625 19.078125l-4.09375 0l-3.796875 -14.265625l-3.78125 14.265625l-4.1875 0zm21.099548 -7.109375q0 -1.8125 0.890625 -3.515625q0.90625 -1.71875 2.546875 -2.609375q1.65625 -0.90625 3.6875 -0.90625q3.140625 0 5.140625 2.046875q2.0 2.03125 2.0 5.140625q0 3.140625 -2.03125 5.203125q-2.015625 2.0625 -5.078125 2.0625q-1.90625 0 -3.640625 -0.859375q-1.71875 -0.859375 -2.625 -2.515625q-0.890625 -1.65625 -0.890625 -4.046875zm3.75 0.203125q0 2.046875 0.96875 3.140625q0.984375 1.09375 2.421875 1.09375q1.421875 0 2.390625 -1.09375q0.984375 -1.09375 0.984375 -3.171875q0 -2.03125 -0.984375 -3.125q-0.96875 -1.09375 -2.390625 -1.09375q-1.4375 0 -2.421875 1.09375q-0.96875 1.09375 -0.96875 3.15625zm16.89209 6.90625l-3.671875 0l0 -13.828125l3.40625 0l0 1.96875q0.875 -1.390625 1.5625 -1.828125q0.703125 -0.453125 1.578125 -0.453125q1.25 0 2.421875 0.703125l-1.140625 3.1875q-0.921875 -0.609375 -1.71875 -0.609375q-0.765625 0 -1.296875 0.421875q-0.53125 0.421875 -0.84375 1.53125q-0.296875 1.109375 -0.296875 4.640625l0 4.265625zm6.7329407 0l0 -19.078125l3.65625 0l0 10.125l4.28125 -4.875l4.5 0l-4.71875 5.0625l5.0625 8.765625l-3.9375 0l-3.484375 -6.203125l-1.703125 1.78125l0 4.421875l-3.65625 0zm22.965546 -4.40625l3.640625 0.625q-0.703125 2.0 -2.21875 3.046875q-1.515625 1.046875 -3.796875 1.046875q-3.609375 0 -5.328125 -2.359375q-1.375 -1.890625 -1.375 -4.765625q0 -3.4375 1.796875 -5.375q1.796875 -1.953125 4.546875 -1.953125q3.078125 0 4.859375 2.046875q1.78125 2.03125 1.703125 6.234375l-9.15625 0q0.046875 1.625 0.890625 2.53125q0.84375 0.90625 2.109375 0.90625q0.859375 0 1.4375 -0.46875q0.59375 -0.46875 0.890625 -1.515625zm0.203125 -3.6875q-0.03125 -1.59375 -0.8125 -2.421875q-0.78125 -0.828125 -1.90625 -0.828125q-1.203125 0 -1.984375 0.875q-0.78125 0.875 -0.765625 2.375l5.46875 0zm10.121826 8.09375l-3.671875 0l0 -13.828125l3.40625 0l0 1.96875q0.875 -1.390625 1.5625 -1.828125q0.703125 -0.453125 1.578125 -0.453125q1.25 0 2.421875 0.703125l-1.140625 3.1875q-0.921875 -0.609375 -1.71875 -0.609375q-0.765625 0 -1.296875 0.421875q-0.53125 0.421875 -0.84375 1.53125q-0.296875 1.109375 -0.296875 4.640625l0 4.265625zm22.84201 0l-3.65625 0l0 -13.78125q-2.0 1.875 -4.71875 2.765625l0 -3.3125q1.4375 -0.46875 3.109375 -1.78125q1.671875 -1.3125 2.296875 -3.046875l2.96875 0l0 19.15625z" fill-rule="nonzero"/><path fill="#b45f06" d="m713.8058 66.58558l0 0c0 -7.5929832 6.1553345 -13.74831 13.748291 -13.74831l125.85773 0c3.6463013 0 7.1431885 1.4484787 9.721497 4.026787c2.578308 2.578308 4.0267944 6.075245 4.0267944 9.721523l0 54.991577c0 7.5929794 -6.1553345 13.748299 -13.748291 13.748299l-125.85773 0c-7.5929565 0 -13.748291 -6.155319 -13.748291 -13.748299z" fill-rule="evenodd"/><path stroke="#595959" stroke-width="1.0" stroke-linejoin="round" stroke-linecap="butt" d="m713.8058 66.58558l0 0c0 -7.5929832 6.1553345 -13.74831 13.748291 -13.74831l125.85773 0c3.6463013 0 7.1431885 1.4484787 9.721497 4.026787c2.578308 2.578308 4.0267944 6.075245 4.0267944 9.721523l0 54.991577c0 7.5929794 -6.1553345 13.748299 -13.748291 13.748299l-125.85773 0c-7.5929565 0 -13.748291 -6.155319 -13.748291 -13.748299z" fill-rule="evenodd"/><path fill="#ffffff" d="m738.32947 103.681366l-4.546875 -19.078125l3.9375 0l2.875 13.109375l3.5 -13.109375l4.578125 0l3.34375 13.328125l2.921875 -13.328125l3.890625 0l-4.640625 19.078125l-4.09375 0l-3.796875 -14.265625l-3.78125 14.265625l-4.1875 0zm21.099548 -7.109375q0 -1.8125 0.890625 -3.515625q0.90625 -1.71875 2.546875 -2.609375q1.65625 -0.90625 3.6875 -0.90625q3.140625 0 5.140625 2.046875q2.0 2.03125 2.0 5.140625q0 3.140625 -2.03125 5.203125q-2.015625 2.0625 -5.078125 2.0625q-1.90625 0 -3.640625 -0.859375q-1.71875 -0.859375 -2.625 -2.515625q-0.890625 -1.65625 -0.890625 -4.046875zm3.75 0.203125q0 2.046875 0.96875 3.140625q0.984375 1.09375 2.421875 1.09375q1.421875 0 2.390625 -1.09375q0.984375 -1.09375 0.984375 -3.171875q0 -2.03125 -0.984375 -3.125q-0.96875 -1.09375 -2.390625 -1.09375q-1.4375 0 -2.421875 1.09375q-0.96875 1.09375 -0.96875 3.15625zm16.892029 6.90625l-3.671875 0l0 -13.828125l3.40625 0l0 1.96875q0.875 -1.390625 1.5625 -1.828125q0.703125 -0.453125 1.578125 -0.453125q1.25 0 2.421875 0.703125l-1.140625 3.1875q-0.921875 -0.609375 -1.71875 -0.609375q-0.765625 0 -1.296875 0.421875q-0.53125 0.421875 -0.84375 1.53125q-0.296875 1.109375 -0.296875 4.640625l0 4.265625zm6.732971 0l0 -19.078125l3.65625 0l0 10.125l4.28125 -4.875l4.5 0l-4.71875 5.0625l5.0625 8.765625l-3.9375 0l-3.484375 -6.203125l-1.703125 1.78125l0 4.421875l-3.65625 0zm22.965515 -4.40625l3.640625 0.625q-0.703125 2.0 -2.21875 3.046875q-1.515625 1.046875 -3.796875 1.046875q-3.609375 0 -5.328125 -2.359375q-1.375 -1.890625 -1.375 -4.765625q0 -3.4375 1.796875 -5.375q1.796875 -1.953125 4.546875 -1.953125q3.078125 0 4.859375 2.046875q1.78125 2.03125 1.703125 6.234375l-9.15625 0q0.046875 1.625 0.890625 2.53125q0.84375 0.90625 2.109375 0.90625q0.859375 0 1.4375 -0.46875q0.59375 -0.46875 0.890625 -1.515625zm0.203125 -3.6875q-0.03125 -1.59375 -0.8125 -2.421875q-0.78125 -0.828125 -1.90625 -0.828125q-1.203125 0 -1.984375 0.875q-0.78125 0.875 -0.765625 2.375l5.46875 0zm10.121826 8.09375l-3.671875 0l0 -13.828125l3.40625 0l0 1.96875q0.875 -1.390625 1.5625 -1.828125q0.703125 -0.453125 1.578125 -0.453125q1.25 0 2.421875 0.703125l-1.140625 3.1875q-0.921875 -0.609375 -1.71875 -0.609375q-0.765625 0 -1.296875 0.421875q-0.53125 0.421875 -0.84375 1.53125q-0.296875 1.109375 -0.296875 4.640625l0 4.265625zm13.357666 -5.0625l3.546875 -0.4375q0.171875 1.359375 0.90625 2.078125q0.75 0.71875 1.796875 0.71875q1.125 0 1.90625 -0.859375q0.78125 -0.859375 0.78125 -2.328125q0 -1.375 -0.75 -2.171875q-0.734375 -0.8125 -1.8125 -0.8125q-0.703125 0 -1.671875 0.265625l0.40625 -2.96875q1.484375 0.03125 2.265625 -0.640625q0.78125 -0.6875 0.78125 -1.828125q0 -0.953125 -0.578125 -1.53125q-0.578125 -0.578125 -1.53125 -0.578125q-0.921875 0 -1.59375 0.65625q-0.65625 0.65625 -0.8125 1.90625l-3.359375 -0.578125q0.34375 -1.734375 1.046875 -2.765625q0.71875 -1.03125 1.984375 -1.625q1.265625 -0.59375 2.84375 -0.59375q2.703125 0 4.328125 1.71875q1.34375 1.40625 1.34375 3.171875q0 2.515625 -2.75 4.015625q1.640625 0.34375 2.609375 1.578125q0.984375 1.21875 0.984375 2.9375q0 2.515625 -1.828125 4.296875q-1.828125 1.765625 -4.5625 1.765625q-2.59375 0 -4.296875 -1.484375q-1.703125 -1.5 -1.984375 -3.90625z" fill-rule="nonzero"/><path fill="#b45f06" d="m532.84515 66.58558l0 0c0 -7.5929832 6.1553345 -13.74831 13.748291 -13.74831l125.85773 0c3.6463013 0 7.1431885 1.4484787 9.721497 4.026787c2.578308 2.578308 4.0267944 6.075245 4.0267944 9.721523l0 54.991577c0 7.5929794 -6.1553345 13.748299 -13.748291 13.748299l-125.85773 0c-7.5929565 0 -13.748291 -6.155319 -13.748291 -13.748299z" fill-rule="evenodd"/><path stroke="#595959" stroke-width="1.0" stroke-linejoin="round" stroke-linecap="butt" d="m532.84515 66.58558l0 0c0 -7.5929832 6.1553345 -13.74831 13.748291 -13.74831l125.85773 0c3.6463013 0 7.1431885 1.4484787 9.721497 4.026787c2.578308 2.578308 4.0267944 6.075245 4.0267944 9.721523l0 54.991577c0 7.5929794 -6.1553345 13.748299 -13.748291 13.748299l-125.85773 0c-7.5929565 0 -13.748291 -6.155319 -13.748291 -13.748299z" fill-rule="evenodd"/><path fill="#ffffff" d="m557.36884 103.681366l-4.546875 -19.078125l3.9375 0l2.875 13.109375l3.5 -13.109375l4.578125 0l3.34375 13.328125l2.921875 -13.328125l3.890625 0l-4.640625 19.078125l-4.09375 0l-3.796875 -14.265625l-3.78125 14.265625l-4.1875 0zm21.099548 -7.109375q0 -1.8125 0.890625 -3.515625q0.90625 -1.71875 2.546875 -2.609375q1.65625 -0.90625 3.6875 -0.90625q3.140625 0 5.140625 2.046875q2.0 2.03125 2.0 5.140625q0 3.140625 -2.03125 5.203125q-2.015625 2.0625 -5.078125 2.0625q-1.90625 0 -3.640625 -0.859375q-1.71875 -0.859375 -2.625 -2.515625q-0.890625 -1.65625 -0.890625 -4.046875zm3.75 0.203125q0 2.046875 0.96875 3.140625q0.984375 1.09375 2.421875 1.09375q1.421875 0 2.390625 -1.09375q0.984375 -1.09375 0.984375 -3.171875q0 -2.03125 -0.984375 -3.125q-0.96875 -1.09375 -2.390625 -1.09375q-1.4375 0 -2.421875 1.09375q-0.96875 1.09375 -0.96875 3.15625zm16.892029 6.90625l-3.671875 0l0 -13.828125l3.40625 0l0 1.96875q0.875 -1.390625 1.5625 -1.828125q0.703125 -0.453125 1.578125 -0.453125q1.25 0 2.421875 0.703125l-1.140625 3.1875q-0.921875 -0.609375 -1.71875 -0.609375q-0.765625 0 -1.296875 0.421875q-0.53125 0.421875 -0.84375 1.53125q-0.296875 1.109375 -0.296875 4.640625l0 4.265625zm6.732971 0l0 -19.078125l3.65625 0l0 10.125l4.28125 -4.875l4.5 0l-4.71875 5.0625l5.0625 8.765625l-3.9375 0l-3.484375 -6.203125l-1.703125 1.78125l0 4.421875l-3.65625 0zm22.965515 -4.40625l3.640625 0.625q-0.703125 2.0 -2.21875 3.046875q-1.515625 1.046875 -3.796875 1.046875q-3.609375 0 -5.328125 -2.359375q-1.375 -1.890625 -1.375 -4.765625q0 -3.4375 1.796875 -5.375q1.796875 -1.953125 4.546875 -1.953125q3.078125 0 4.859375 2.046875q1.78125 2.03125 1.703125 6.234375l-9.15625 0q0.046875 1.625 0.890625 2.53125q0.84375 0.90625 2.109375 0.90625q0.859375 0 1.4375 -0.46875q0.59375 -0.46875 0.890625 -1.515625zm0.203125 -3.6875q-0.03125 -1.59375 -0.8125 -2.421875q-0.78125 -0.828125 -1.90625 -0.828125q-1.203125 0 -1.984375 0.875q-0.78125 0.875 -0.765625 2.375l5.46875 0zm10.121826 8.09375l-3.671875 0l0 -13.828125l3.40625 0l0 1.96875q0.875 -1.390625 1.5625 -1.828125q0.703125 -0.453125 1.578125 -0.453125q1.25 0 2.421875 0.703125l-1.140625 3.1875q-0.921875 -0.609375 -1.71875 -0.609375q-0.765625 0 -1.296875 0.421875q-0.53125 0.421875 -0.84375 1.53125q-0.296875 1.109375 -0.296875 4.640625l0 4.265625zm25.842041 -3.390625l0 3.390625l-12.828125 0q0.21875 -1.921875 1.25 -3.640625q1.046875 -1.734375 4.125 -4.578125q2.46875 -2.3125 3.03125 -3.125q0.75 -1.140625 0.75 -2.25q0 -1.21875 -0.65625 -1.875q-0.65625 -0.65625 -1.8125 -0.65625q-1.140625 0 -1.828125 0.6875q-0.671875 0.6875 -0.78125 2.296875l-3.640625 -0.375q0.328125 -3.015625 2.046875 -4.328125q1.71875 -1.3125 4.296875 -1.3125q2.8125 0 4.421875 1.53125q1.625 1.515625 1.625 3.78125q0 1.28125 -0.46875 2.453125q-0.453125 1.15625 -1.453125 2.4375q-0.671875 0.84375 -2.40625 2.4375q-1.71875 1.578125 -2.1875 2.109375q-0.453125 0.515625 -0.75 1.015625l7.265625 0z" fill-rule="nonzero"/><path fill="#228f83" d="m92.83465 247.44882l774.3307 0l0 45.102356l-774.3307 0z" fill-rule="evenodd"/><path stroke="#595959" stroke-width="1.0" stroke-linejoin="round" stroke-linecap="butt" d="m92.83465 247.44882l774.3307 0l0 45.102356l-774.3307 0z" fill-rule="evenodd"/><path fill="#ffffff" d="m311.508 279.6l0 -19.078125l5.765625 0l3.453125 13.015625l3.421875 -13.015625l5.78125 0l0 19.078125l-3.578125 0l0 -15.015625l-3.78125 15.015625l-3.71875 0l-3.765625 -15.015625l0 15.015625l-3.578125 0zm30.236115 -4.40625l3.640625 0.625q-0.703125 2.0 -2.21875 3.046875q-1.515625 1.046875 -3.796875 1.046875q-3.609375 0 -5.328125 -2.359375q-1.375 -1.890625 -1.375 -4.765625q0 -3.4375 1.796875 -5.375q1.796875 -1.953125 4.546875 -1.953125q3.078125 0 4.859375 2.046875q1.78125 2.03125 1.703125 6.234375l-9.15625 0q0.046875 1.625 0.890625 2.53125q0.84375 0.90625 2.109375 0.90625q0.859375 0 1.4375 -0.46875q0.59375 -0.46875 0.890625 -1.515625zm0.203125 -3.6875q-0.03125 -1.59375 -0.8125 -2.421875q-0.78125 -0.828125 -1.90625 -0.828125q-1.203125 0 -1.984375 0.875q-0.78125 0.875 -0.765625 2.375l5.46875 0zm5.3249207 4.15625l3.671875 -0.5625q0.234375 1.0625 0.953125 1.625q0.71875 0.546875 2.0 0.546875q1.421875 0 2.140625 -0.515625q0.46875 -0.375 0.46875 -0.984375q0 -0.421875 -0.25 -0.6875q-0.28125 -0.265625 -1.234375 -0.484375q-4.421875 -0.96875 -5.609375 -1.78125q-1.640625 -1.125 -1.640625 -3.109375q0 -1.796875 1.421875 -3.015625q1.421875 -1.234375 4.40625 -1.234375q2.828125 0 4.203125 0.9375q1.390625 0.921875 1.90625 2.71875l-3.4375 0.640625q-0.234375 -0.796875 -0.859375 -1.21875q-0.609375 -0.4375 -1.75 -0.4375q-1.4375 0 -2.0625 0.390625q-0.421875 0.296875 -0.421875 0.75q0 0.390625 0.359375 0.65625q0.5 0.375 3.421875 1.046875q2.921875 0.65625 4.078125 1.609375q1.140625 0.984375 1.140625 2.71875q0 1.90625 -1.59375 3.28125q-1.578125 1.359375 -4.6875 1.359375q-2.828125 0 -4.484375 -1.140625q-1.640625 -1.15625 -2.140625 -3.109375zm14.824951 0l3.671875 -0.5625q0.234375 1.0625 0.953125 1.625q0.71875 0.546875 2.0 0.546875q1.421875 0 2.140625 -0.515625q0.46875 -0.375 0.46875 -0.984375q0 -0.421875 -0.25 -0.6875q-0.28125 -0.265625 -1.234375 -0.484375q-4.421875 -0.96875 -5.609375 -1.78125q-1.640625 -1.125 -1.640625 -3.109375q0 -1.796875 1.421875 -3.015625q1.421875 -1.234375 4.40625 -1.234375q2.828125 0 4.203125 0.9375q1.390625 0.921875 1.90625 2.71875l-3.4375 0.640625q-0.234375 -0.796875 -0.859375 -1.21875q-0.609375 -0.4375 -1.75 -0.4375q-1.4375 0 -2.0625 0.390625q-0.421875 0.296875 -0.421875 0.75q0 0.390625 0.359375 0.65625q0.5 0.375 3.421875 1.046875q2.921875 0.65625 4.078125 1.609375q1.140625 0.984375 1.140625 2.71875q0 1.90625 -1.59375 3.28125q-1.578125 1.359375 -4.6875 1.359375q-2.828125 0 -4.484375 -1.140625q-1.640625 -1.15625 -2.140625 -3.109375zm18.840576 -5.671875l-3.3125 -0.59375q0.5625 -2.0 1.921875 -2.96875q1.375 -0.96875 4.0625 -0.96875q2.453125 0 3.640625 0.578125q1.203125 0.578125 1.6875 1.484375q0.5 0.890625 0.5 3.265625l-0.046875 4.265625q0 1.828125 0.171875 2.703125q0.171875 0.859375 0.65625 1.84375l-3.609375 0q-0.140625 -0.359375 -0.359375 -1.078125q-0.09375 -0.328125 -0.125 -0.4375q-0.9375 0.921875 -2.015625 1.375q-1.0625 0.453125 -2.265625 0.453125q-2.140625 0 -3.375 -1.15625q-1.21875 -1.15625 -1.21875 -2.9375q0 -1.171875 0.546875 -2.078125q0.5625 -0.921875 1.578125 -1.40625q1.015625 -0.484375 2.90625 -0.859375q2.5625 -0.484375 3.5625 -0.890625l0 -0.375q0 -1.046875 -0.53125 -1.5q-0.515625 -0.453125 -1.96875 -0.453125q-0.96875 0 -1.515625 0.390625q-0.546875 0.390625 -0.890625 1.34375zm4.90625 2.96875q-0.703125 0.234375 -2.234375 0.5625q-1.515625 0.328125 -1.984375 0.640625q-0.71875 0.5 -0.71875 1.28125q0 0.765625 0.5625 1.328125q0.578125 0.5625 1.46875 0.5625q0.984375 0 1.890625 -0.65625q0.65625 -0.484375 0.859375 -1.203125q0.15625 -0.46875 0.15625 -1.78125l0 -0.734375zm6.8561707 7.546875l4.171875 0.515625q0.109375 0.71875 0.484375 1.0q0.515625 0.390625 1.640625 0.390625q1.4375 0 2.140625 -0.4375q0.484375 -0.28125 0.734375 -0.921875q0.171875 -0.453125 0.171875 -1.671875l0 -2.015625q-1.640625 2.234375 -4.140625 2.234375q-2.78125 0 -4.40625 -2.359375q-1.28125 -1.859375 -1.28125 -4.625q0 -3.484375 1.671875 -5.3125q1.671875 -1.84375 4.15625 -1.84375q2.5625 0 4.234375 2.25l0 -1.9375l3.421875 0l0 12.40625q0 2.453125 -0.40625 3.65625q-0.40625 1.21875 -1.140625 1.90625q-0.71875 0.6875 -1.9375 1.078125q-1.21875 0.390625 -3.078125 0.390625q-3.515625 0 -4.984375 -1.203125q-1.46875 -1.203125 -1.46875 -3.046875q0 -0.1875 0.015625 -0.453125zm3.265625 -8.109375q0 2.203125 0.84375 3.234375q0.859375 1.015625 2.109375 1.015625q1.34375 0 2.265625 -1.046875q0.921875 -1.046875 0.921875 -3.109375q0 -2.140625 -0.890625 -3.1875q-0.875 -1.046875 -2.234375 -1.046875q-1.3125 0 -2.171875 1.03125q-0.84375 1.015625 -0.84375 3.109375zm21.36081 2.796875l3.640625 0.625q-0.703125 2.0 -2.21875 3.046875q-1.515625 1.046875 -3.796875 1.046875q-3.609375 0 -5.328125 -2.359375q-1.375 -1.890625 -1.375 -4.765625q0 -3.4375 1.796875 -5.375q1.796875 -1.953125 4.546875 -1.953125q3.078125 0 4.859375 2.046875q1.78125 2.03125 1.703125 6.234375l-9.15625 0q0.046875 1.625 0.890625 2.53125q0.84375 0.90625 2.109375 0.90625q0.859375 0 1.4375 -0.46875q0.59375 -0.46875 0.890625 -1.515625zm0.203125 -3.6875q-0.03125 -1.59375 -0.8125 -2.421875q-0.78125 -0.828125 -1.90625 -0.828125q-1.203125 0 -1.984375 0.875q-0.78125 0.875 -0.765625 2.375l5.46875 0zm14.043396 8.09375l0 -19.078125l6.1875 0q3.515625 0 4.578125 0.28125q1.640625 0.4375 2.75 1.875q1.109375 1.4375 1.109375 3.703125q0 1.765625 -0.640625 2.96875q-0.640625 1.1875 -1.625 1.875q-0.984375 0.6875 -2.0 0.90625q-1.375 0.265625 -4.0 0.265625l-2.5 0l0 7.203125l-3.859375 0zm3.859375 -15.859375l0 5.421875l2.109375 0q2.265625 0 3.03125 -0.296875q0.78125 -0.296875 1.21875 -0.9375q0.4375 -0.640625 0.4375 -1.484375q0 -1.046875 -0.625 -1.71875q-0.609375 -0.671875 -1.546875 -0.84375q-0.6875 -0.140625 -2.765625 -0.140625l-1.859375 0zm16.623291 6.25l-3.3125 -0.59375q0.5625 -2.0 1.921875 -2.96875q1.375 -0.96875 4.0625 -0.96875q2.453125 0 3.640625 0.578125q1.203125 0.578125 1.6875 1.484375q0.5 0.890625 0.5 3.265625l-0.046875 4.265625q0 1.828125 0.171875 2.703125q0.171875 0.859375 0.65625 1.84375l-3.609375 0q-0.140625 -0.359375 -0.359375 -1.078125q-0.09375 -0.328125 -0.125 -0.4375q-0.9375 0.921875 -2.015625 1.375q-1.0625 0.453125 -2.265625 0.453125q-2.140625 0 -3.375 -1.15625q-1.21875 -1.15625 -1.21875 -2.9375q0 -1.171875 0.546875 -2.078125q0.5625 -0.921875 1.578125 -1.40625q1.015625 -0.484375 2.90625 -0.859375q2.5625 -0.484375 3.5625 -0.890625l0 -0.375q0 -1.046875 -0.53125 -1.5q-0.515625 -0.453125 -1.96875 -0.453125q-0.96875 0 -1.515625 0.390625q-0.546875 0.390625 -0.890625 1.34375zm4.90625 2.96875q-0.703125 0.234375 -2.234375 0.5625q-1.515625 0.328125 -1.984375 0.640625q-0.71875 0.5 -0.71875 1.28125q0 0.765625 0.5625 1.328125q0.578125 0.5625 1.46875 0.5625q0.984375 0 1.890625 -0.65625q0.65625 -0.484375 0.859375 -1.203125q0.15625 -0.46875 0.15625 -1.78125l0 -0.734375zm5.9030457 2.703125l3.671875 -0.5625q0.234375 1.0625 0.953125 1.625q0.71875 0.546875 2.0 0.546875q1.421875 0 2.140625 -0.515625q0.46875 -0.375 0.46875 -0.984375q0 -0.421875 -0.25 -0.6875q-0.28125 -0.265625 -1.234375 -0.484375q-4.421875 -0.96875 -5.609375 -1.78125q-1.640625 -1.125 -1.640625 -3.109375q0 -1.796875 1.421875 -3.015625q1.421875 -1.234375 4.40625 -1.234375q2.828125 0 4.203125 0.9375q1.390625 0.921875 1.90625 2.71875l-3.4375 0.640625q-0.234375 -0.796875 -0.859375 -1.21875q-0.609375 -0.4375 -1.75 -0.4375q-1.4375 0 -2.0625 0.390625q-0.421875 0.296875 -0.421875 0.75q0 0.390625 0.359375 0.65625q0.5 0.375 3.421875 1.046875q2.921875 0.65625 4.078125 1.609375q1.140625 0.984375 1.140625 2.71875q0 1.90625 -1.59375 3.28125q-1.578125 1.359375 -4.6875 1.359375q-2.828125 0 -4.484375 -1.140625q-1.640625 -1.15625 -2.140625 -3.109375zm14.824921 0l3.671875 -0.5625q0.234375 1.0625 0.953125 1.625q0.71875 0.546875 2.0 0.546875q1.421875 0 2.140625 -0.515625q0.46875 -0.375 0.46875 -0.984375q0 -0.421875 -0.25 -0.6875q-0.28125 -0.265625 -1.234375 -0.484375q-4.421875 -0.96875 -5.609375 -1.78125q-1.640625 -1.125 -1.640625 -3.109375q0 -1.796875 1.421875 -3.015625q1.421875 -1.234375 4.40625 -1.234375q2.828125 0 4.203125 0.9375q1.390625 0.921875 1.90625 2.71875l-3.4375 0.640625q-0.234375 -0.796875 -0.859375 -1.21875q-0.609375 -0.4375 -1.75 -0.4375q-1.4375 0 -2.0625 0.390625q-0.421875 0.296875 -0.421875 0.75q0 0.390625 0.359375 0.65625q0.5 0.375 3.421875 1.046875q2.921875 0.65625 4.078125 1.609375q1.140625 0.984375 1.140625 2.71875q0 1.90625 -1.59375 3.28125q-1.578125 1.359375 -4.6875 1.359375q-2.828125 0 -4.484375 -1.140625q-1.640625 -1.15625 -2.140625 -3.109375zm16.106201 -11.765625l0 -3.375l3.671875 0l0 3.375l-3.671875 0zm0 15.703125l0 -13.828125l3.671875 0l0 13.828125l-3.671875 0zm19.98407 0l-3.65625 0l0 -7.046875q0 -2.25 -0.234375 -2.90625q-0.234375 -0.65625 -0.765625 -1.015625q-0.515625 -0.375 -1.265625 -0.375q-0.953125 0 -1.703125 0.53125q-0.75 0.515625 -1.03125 1.375q-0.28125 0.859375 -0.28125 3.171875l0 6.265625l-3.65625 0l0 -13.828125l3.390625 0l0 2.03125q1.8125 -2.34375 4.5625 -2.34375q1.203125 0 2.203125 0.4375q1.015625 0.4375 1.515625 1.125q0.515625 0.671875 0.71875 1.53125q0.203125 0.859375 0.203125 2.453125l0 8.59375zm3.3764648 0.90625l4.171875 0.515625q0.109375 0.71875 0.484375 1.0q0.515625 0.390625 1.640625 0.390625q1.4375 0 2.140625 -0.4375q0.484375 -0.28125 0.734375 -0.921875q0.171875 -0.453125 0.171875 -1.671875l0 -2.015625q-1.640625 2.234375 -4.140625 2.234375q-2.78125 0 -4.40625 -2.359375q-1.28125 -1.859375 -1.28125 -4.625q0 -3.484375 1.671875 -5.3125q1.671875 -1.84375 4.15625 -1.84375q2.5625 0 4.234375 2.25l0 -1.9375l3.421875 0l0 12.40625q0 2.453125 -0.40625 3.65625q-0.40625 1.21875 -1.140625 1.90625q-0.71875 0.6875 -1.9375 1.078125q-1.21875 0.390625 -3.078125 0.390625q-3.515625 0 -4.984375 -1.203125q-1.46875 -1.203125 -1.46875 -3.046875q0 -0.1875 0.015625 -0.453125zm3.265625 -8.109375q0 2.203125 0.84375 3.234375q0.859375 1.015625 2.109375 1.015625q1.34375 0 2.265625 -1.046875q0.921875 -1.046875 0.921875 -3.109375q0 -2.140625 -0.890625 -3.1875q-0.875 -1.046875 -2.234375 -1.046875q-1.3125 0 -2.171875 1.03125q-0.84375 1.015625 -0.84375 3.109375zm20.673035 7.203125l0 -19.078125l3.84375 0l0 19.078125l-3.84375 0zm20.062195 0l-3.65625 0l0 -7.046875q0 -2.25 -0.234375 -2.90625q-0.234375 -0.65625 -0.765625 -1.015625q-0.515625 -0.375 -1.265625 -0.375q-0.953125 0 -1.703125 0.53125q-0.75 0.515625 -1.03125 1.375q-0.28125 0.859375 -0.28125 3.171875l0 6.265625l-3.65625 0l0 -13.828125l3.390625 0l0 2.03125q1.8125 -2.34375 4.5625 -2.34375q1.203125 0 2.203125 0.4375q1.015625 0.4375 1.515625 1.125q0.515625 0.671875 0.71875 1.53125q0.203125 0.859375 0.203125 2.453125l0 8.59375zm10.04834 -13.828125l0 2.921875l-2.5 0l0 5.5625q0 1.703125 0.0625 1.984375q0.078125 0.28125 0.328125 0.46875q0.265625 0.171875 0.625 0.171875q0.515625 0 1.46875 -0.359375l0.3125 2.84375q-1.265625 0.546875 -2.890625 0.546875q-0.984375 0 -1.78125 -0.328125q-0.796875 -0.328125 -1.171875 -0.859375q-0.359375 -0.53125 -0.5 -1.421875q-0.125 -0.640625 -0.125 -2.578125l0 -6.03125l-1.671875 0l0 -2.921875l1.671875 0l0 -2.734375l3.671875 -2.140625l0 4.875l2.5 0zm10.548584 9.421875l3.640625 0.625q-0.703125 2.0 -2.21875 3.046875q-1.515625 1.046875 -3.796875 1.046875q-3.609375 0 -5.328125 -2.359375q-1.375 -1.890625 -1.375 -4.765625q0 -3.4375 1.796875 -5.375q1.796875 -1.953125 4.546875 -1.953125q3.078125 0 4.859375 2.046875q1.78125 2.03125 1.703125 6.234375l-9.15625 0q0.046875 1.625 0.890625 2.53125q0.84375 0.90625 2.109375 0.90625q0.859375 0 1.4375 -0.46875q0.59375 -0.46875 0.890625 -1.515625zm0.203125 -3.6875q-0.03125 -1.59375 -0.8125 -2.421875q-0.78125 -0.828125 -1.90625 -0.828125q-1.203125 0 -1.984375 0.875q-0.78125 0.875 -0.765625 2.375l5.46875 0zm10.121826 8.09375l-3.671875 0l0 -13.828125l3.40625 0l0 1.96875q0.875 -1.390625 1.5625 -1.828125q0.703125 -0.453125 1.578125 -0.453125q1.25 0 2.421875 0.703125l-1.140625 3.1875q-0.921875 -0.609375 -1.71875 -0.609375q-0.765625 0 -1.296875 0.421875q-0.53125 0.421875 -0.84375 1.53125q-0.296875 1.109375 -0.296875 4.640625l0 4.265625zm5.26416 -13.828125l2.03125 0l0 -1.03125q0 -1.75 0.359375 -2.609375q0.375 -0.859375 1.375 -1.390625q1.0 -0.546875 2.515625 -0.546875q1.5625 0 3.0625 0.46875l-0.5 2.546875q-0.859375 -0.203125 -1.671875 -0.203125q-0.796875 0 -1.140625 0.375q-0.34375 0.359375 -0.34375 1.421875l0 0.96875l2.734375 0l0 2.875l-2.734375 0l0 10.953125l-3.65625 0l0 -10.953125l-2.03125 0l0 -2.875zm13.204834 4.21875l-3.3125 -0.59375q0.5625 -2.0 1.921875 -2.96875q1.375 -0.96875 4.0625 -0.96875q2.453125 0 3.640625 0.578125q1.203125 0.578125 1.6875 1.484375q0.5 0.890625 0.5 3.265625l-0.046875 4.265625q0 1.828125 0.171875 2.703125q0.171875 0.859375 0.65625 1.84375l-3.609375 0q-0.140625 -0.359375 -0.359375 -1.078125q-0.09375 -0.328125 -0.125 -0.4375q-0.9375 0.921875 -2.015625 1.375q-1.0625 0.453125 -2.265625 0.453125q-2.140625 0 -3.375 -1.15625q-1.21875 -1.15625 -1.21875 -2.9375q0 -1.171875 0.546875 -2.078125q0.5625 -0.921875 1.578125 -1.40625q1.015625 -0.484375 2.90625 -0.859375q2.5625 -0.484375 3.5625 -0.890625l0 -0.375q0 -1.046875 -0.53125 -1.5q-0.515625 -0.453125 -1.96875 -0.453125q-0.96875 0 -1.515625 0.390625q-0.546875 0.390625 -0.890625 1.34375zm4.90625 2.96875q-0.703125 0.234375 -2.234375 0.5625q-1.515625 0.328125 -1.984375 0.640625q-0.71875 0.5 -0.71875 1.28125q0 0.765625 0.5625 1.328125q0.578125 0.5625 1.46875 0.5625q0.984375 0 1.890625 -0.65625q0.65625 -0.484375 0.859375 -1.203125q0.15625 -0.46875 0.15625 -1.78125l0 -0.734375zm19.246826 -3.09375l-3.609375 0.65625q-0.1875 -1.09375 -0.828125 -1.640625q-0.640625 -0.546875 -1.671875 -0.546875q-1.359375 0 -2.171875 0.953125q-0.8125 0.9375 -0.8125 3.15625q0 2.453125 0.8125 3.46875q0.828125 1.015625 2.21875 1.015625q1.046875 0 1.703125 -0.59375q0.671875 -0.59375 0.953125 -2.03125l3.578125 0.609375q-0.546875 2.46875 -2.140625 3.734375q-1.59375 1.265625 -4.25 1.265625q-3.03125 0 -4.84375 -1.90625q-1.796875 -1.921875 -1.796875 -5.296875q0 -3.4375 1.796875 -5.34375q1.8125 -1.90625 4.90625 -1.90625q2.515625 0 4.0 1.09375q1.5 1.078125 2.15625 3.3125zm10.778076 5.328125l3.640625 0.625q-0.703125 2.0 -2.21875 3.046875q-1.515625 1.046875 -3.796875 1.046875q-3.609375 0 -5.328125 -2.359375q-1.375 -1.890625 -1.375 -4.765625q0 -3.4375 1.796875 -5.375q1.796875 -1.953125 4.546875 -1.953125q3.078125 0 4.859375 2.046875q1.78125 2.03125 1.703125 6.234375l-9.15625 0q0.046875 1.625 0.890625 2.53125q0.84375 0.90625 2.109375 0.90625q0.859375 0 1.4375 -0.46875q0.59375 -0.46875 0.890625 -1.515625zm0.203125 -3.6875q-0.03125 -1.59375 -0.8125 -2.421875q-0.78125 -0.828125 -1.90625 -0.828125q-1.203125 0 -1.984375 0.875q-0.78125 0.875 -0.765625 2.375l5.46875 0z" fill-rule="nonzero"/><path fill="#1c4587" d="m254.48228 396.30447l451.0354 0l0 0c59.086853 0 106.98627 19.907318 106.98627 44.464233c0 24.556946 -47.899414 44.464264 -106.98627 44.464264l-451.0354 0l0 0c-59.086853 0 -106.98622 -19.907318 -106.98622 -44.464264c0 -24.556915 47.89937 -44.464233 106.98622 -44.464233z" fill-rule="evenodd"/><path stroke="#595959" stroke-width="1.0" stroke-linejoin="round" stroke-linecap="butt" d="m254.48228 396.30447l451.0354 0l0 0c59.086853 0 106.98627 19.907318 106.98627 44.464233c0 24.556946 -47.899414 44.464264 -106.98627 44.464264l-451.0354 0l0 0c-59.086853 0 -106.98622 -19.907318 -106.98622 -44.464264c0 -24.556915 47.89937 -44.464233 106.98622 -44.464233z" fill-rule="evenodd"/><path fill="#ffffff" d="m329.7387 443.3531l3.75 1.1875q-0.859375 3.125 -2.859375 4.640625q-2.0 1.515625 -5.078125 1.515625q-3.796875 0 -6.25 -2.59375q-2.4375 -2.609375 -2.4375 -7.109375q0 -4.765625 2.453125 -7.390625q2.46875 -2.640625 6.46875 -2.640625q3.5 0 5.6875 2.0625q1.3125 1.234375 1.953125 3.515625l-3.8125 0.921875q-0.34375 -1.484375 -1.421875 -2.34375q-1.0625 -0.859375 -2.59375 -0.859375q-2.125 0 -3.453125 1.53125q-1.3125 1.515625 -1.3125 4.921875q0 3.609375 1.296875 5.15625q1.296875 1.53125 3.390625 1.53125q1.53125 0 2.640625 -0.96875q1.109375 -0.984375 1.578125 -3.078125zm6.1721497 -0.09375q0 -1.8125 0.890625 -3.515625q0.90625 -1.71875 2.546875 -2.609375q1.65625 -0.90625 3.6875 -0.90625q3.140625 0 5.140625 2.046875q2.0 2.03125 2.0 5.140625q0 3.140625 -2.03125 5.203125q-2.015625 2.0625 -5.078125 2.0625q-1.90625 0 -3.640625 -0.859375q-1.71875 -0.859375 -2.625 -2.515625q-0.890625 -1.65625 -0.890625 -4.046875zm3.75 0.203125q0 2.046875 0.96875 3.140625q0.984375 1.09375 2.421875 1.09375q1.421875 0 2.390625 -1.09375q0.984375 -1.09375 0.984375 -3.171875q0 -2.03125 -0.984375 -3.125q-0.96875 -1.09375 -2.390625 -1.09375q-1.4375 0 -2.421875 1.09375q-0.96875 1.09375 -0.96875 3.15625zm13.11084 -6.921875l3.375 0l0 1.890625q1.796875 -2.203125 4.296875 -2.203125q1.328125 0 2.296875 0.546875q0.984375 0.546875 1.609375 1.65625q0.921875 -1.109375 1.96875 -1.65625q1.0625 -0.546875 2.25 -0.546875q1.53125 0 2.578125 0.625q1.0625 0.609375 1.578125 1.8125q0.375 0.890625 0.375 2.859375l0 8.84375l-3.65625 0l0 -7.90625q0 -2.046875 -0.375 -2.65625q-0.515625 -0.78125 -1.5625 -0.78125q-0.765625 0 -1.453125 0.46875q-0.671875 0.46875 -0.96875 1.375q-0.296875 0.90625 -0.296875 2.859375l0 6.640625l-3.65625 0l0 -7.578125q0 -2.015625 -0.203125 -2.59375q-0.1875 -0.59375 -0.609375 -0.875q-0.40625 -0.296875 -1.109375 -0.296875q-0.84375 0 -1.515625 0.46875q-0.671875 0.453125 -0.96875 1.3125q-0.296875 0.859375 -0.296875 2.84375l0 6.71875l-3.65625 0l0 -13.828125zm23.70166 0l3.375 0l0 1.890625q1.796875 -2.203125 4.296875 -2.203125q1.328125 0 2.296875 0.546875q0.984375 0.546875 1.609375 1.65625q0.921875 -1.109375 1.96875 -1.65625q1.0625 -0.546875 2.25 -0.546875q1.53125 0 2.578125 0.625q1.0625 0.609375 1.578125 1.8125q0.375 0.890625 0.375 2.859375l0 8.84375l-3.65625 0l0 -7.90625q0 -2.046875 -0.375 -2.65625q-0.515625 -0.78125 -1.5625 -0.78125q-0.765625 0 -1.453125 0.46875q-0.671875 0.46875 -0.96875 1.375q-0.296875 0.90625 -0.296875 2.859375l0 6.640625l-3.65625 0l0 -7.578125q0 -2.015625 -0.203125 -2.59375q-0.1875 -0.59375 -0.609375 -0.875q-0.40625 -0.296875 -1.109375 -0.296875q-0.84375 0 -1.515625 0.46875q-0.671875 0.453125 -0.96875 1.3125q-0.296875 0.859375 -0.296875 2.84375l0 6.71875l-3.65625 0l0 -13.828125zm33.07669 13.828125l0 -2.0625q-0.765625 1.09375 -2.0 1.734375q-1.21875 0.640625 -2.578125 0.640625q-1.40625 0 -2.515625 -0.609375q-1.09375 -0.609375 -1.59375 -1.71875q-0.5 -1.109375 -0.5 -3.0625l0 -8.75l3.671875 0l0 6.359375q0 2.90625 0.1875 3.578125q0.203125 0.65625 0.734375 1.046875q0.546875 0.375 1.359375 0.375q0.9375 0 1.671875 -0.515625q0.75 -0.515625 1.015625 -1.28125q0.28125 -0.765625 0.28125 -3.71875l0 -5.84375l3.65625 0l0 13.828125l-3.390625 0zm19.751434 0l-3.65625 0l0 -7.046875q0 -2.25 -0.234375 -2.90625q-0.234375 -0.65625 -0.765625 -1.015625q-0.515625 -0.375 -1.265625 -0.375q-0.953125 0 -1.703125 0.53125q-0.75 0.515625 -1.03125 1.375q-0.28125 0.859375 -0.28125 3.171875l0 6.265625l-3.65625 0l0 -13.828125l3.390625 0l0 2.03125q1.8125 -2.34375 4.5625 -2.34375q1.203125 0 2.203125 0.4375q1.015625 0.4375 1.515625 1.125q0.515625 0.671875 0.71875 1.53125q0.203125 0.859375 0.203125 2.453125l0 8.59375zm3.7045898 -15.703125l0 -3.375l3.671875 0l0 3.375l-3.671875 0zm0 15.703125l0 -13.828125l3.671875 0l0 13.828125l-3.671875 0zm19.468475 -9.734375l-3.609375 0.65625q-0.1875 -1.09375 -0.828125 -1.640625q-0.640625 -0.546875 -1.671875 -0.546875q-1.359375 0 -2.171875 0.953125q-0.8125 0.9375 -0.8125 3.15625q0 2.453125 0.8125 3.46875q0.828125 1.015625 2.21875 1.015625q1.046875 0 1.703125 -0.59375q0.671875 -0.59375 0.953125 -2.03125l3.578125 0.609375q-0.546875 2.46875 -2.140625 3.734375q-1.59375 1.265625 -4.25 1.265625q-3.03125 0 -4.84375 -1.90625q-1.796875 -1.921875 -1.796875 -5.296875q0 -3.4375 1.796875 -5.34375q1.8125 -1.90625 4.90625 -1.90625q2.515625 0 4.0 1.09375q1.5 1.078125 2.15625 3.3125zm5.4967957 0.125l-3.3125 -0.59375q0.5625 -2.0 1.921875 -2.96875q1.375 -0.96875 4.0625 -0.96875q2.453125 0 3.640625 0.578125q1.203125 0.578125 1.6875 1.484375q0.5 0.890625 0.5 3.265625l-0.046875 4.265625q0 1.828125 0.171875 2.703125q0.171875 0.859375 0.65625 1.84375l-3.609375 0q-0.140625 -0.359375 -0.359375 -1.078125q-0.09375 -0.328125 -0.125 -0.4375q-0.9375 0.921875 -2.015625 1.375q-1.0625 0.453125 -2.265625 0.453125q-2.140625 0 -3.375 -1.15625q-1.21875 -1.15625 -1.21875 -2.9375q0 -1.171875 0.546875 -2.078125q0.5625 -0.921875 1.578125 -1.40625q1.015625 -0.484375 2.90625 -0.859375q2.5625 -0.484375 3.5625 -0.890625l0 -0.375q0 -1.046875 -0.53125 -1.5q-0.515625 -0.453125 -1.96875 -0.453125q-0.96875 0 -1.515625 0.390625q-0.546875 0.390625 -0.890625 1.34375zm4.90625 2.96875q-0.703125 0.234375 -2.234375 0.5625q-1.515625 0.328125 -1.984375 0.640625q-0.71875 0.5 -0.71875 1.28125q0 0.765625 0.5625 1.328125q0.578125 0.5625 1.46875 0.5625q0.984375 0 1.890625 -0.65625q0.65625 -0.484375 0.859375 -1.203125q0.15625 -0.46875 0.15625 -1.78125l0 -0.734375zm13.528046 -7.1875l0 2.921875l-2.5 0l0 5.5625q0 1.703125 0.0625 1.984375q0.078125 0.28125 0.328125 0.46875q0.265625 0.171875 0.625 0.171875q0.515625 0 1.46875 -0.359375l0.3125 2.84375q-1.265625 0.546875 -2.890625 0.546875q-0.984375 0 -1.78125 -0.328125q-0.796875 -0.328125 -1.171875 -0.859375q-0.359375 -0.53125 -0.5 -1.421875q-0.125 -0.640625 -0.125 -2.578125l0 -6.03125l-1.671875 0l0 -2.921875l1.671875 0l0 -2.734375l3.671875 -2.140625l0 4.875l2.5 0zm2.53302 -1.875l0 -3.375l3.671875 0l0 3.375l-3.671875 0zm0 15.703125l0 -13.828125l3.671875 0l0 13.828125l-3.671875 0zm6.562195 -7.109375q0 -1.8125 0.890625 -3.515625q0.90625 -1.71875 2.546875 -2.609375q1.65625 -0.90625 3.6875 -0.90625q3.140625 0 5.140625 2.046875q2.0 2.03125 2.0 5.140625q0 3.140625 -2.03125 5.203125q-2.015625 2.0625 -5.078125 2.0625q-1.90625 0 -3.640625 -0.859375q-1.71875 -0.859375 -2.625 -2.515625q-0.890625 -1.65625 -0.890625 -4.046875zm3.75 0.203125q0 2.046875 0.96875 3.140625q0.984375 1.09375 2.421875 1.09375q1.421875 0 2.390625 -1.09375q0.984375 -1.09375 0.984375 -3.171875q0 -2.03125 -0.984375 -3.125q-0.96875 -1.09375 -2.390625 -1.09375q-1.4375 0 -2.421875 1.09375q-0.96875 1.09375 -0.96875 3.15625zm25.95459 6.90625l-3.65625 0l0 -7.046875q0 -2.25 -0.234375 -2.90625q-0.234375 -0.65625 -0.765625 -1.015625q-0.515625 -0.375 -1.265625 -0.375q-0.953125 0 -1.703125 0.53125q-0.75 0.515625 -1.03125 1.375q-0.28125 0.859375 -0.28125 3.171875l0 6.265625l-3.65625 0l0 -13.828125l3.390625 0l0 2.03125q1.8125 -2.34375 4.5625 -2.34375q1.203125 0 2.203125 0.4375q1.015625 0.4375 1.515625 1.125q0.515625 0.671875 0.71875 1.53125q0.203125 0.859375 0.203125 2.453125l0 8.59375zm2.4232788 -3.9375l3.671875 -0.5625q0.234375 1.0625 0.953125 1.625q0.71875 0.546875 2.0 0.546875q1.421875 0 2.140625 -0.515625q0.46875 -0.375 0.46875 -0.984375q0 -0.421875 -0.25 -0.6875q-0.28125 -0.265625 -1.234375 -0.484375q-4.421875 -0.96875 -5.609375 -1.78125q-1.640625 -1.125 -1.640625 -3.109375q0 -1.796875 1.421875 -3.015625q1.421875 -1.234375 4.40625 -1.234375q2.828125 0 4.203125 0.9375q1.390625 0.921875 1.90625 2.71875l-3.4375 0.640625q-0.234375 -0.796875 -0.859375 -1.21875q-0.609375 -0.4375 -1.75 -0.4375q-1.4375 0 -2.0625 0.390625q-0.421875 0.296875 -0.421875 0.75q0 0.390625 0.359375 0.65625q0.5 0.375 3.421875 1.046875q2.921875 0.65625 4.078125 1.609375q1.140625 0.984375 1.140625 2.71875q0 1.90625 -1.59375 3.28125q-1.578125 1.359375 -4.6875 1.359375q-2.828125 0 -4.484375 -1.140625q-1.640625 -1.15625 -2.140625 -3.109375zm23.590271 3.9375l0 -19.078125l3.75 0l7.796875 12.734375l0 -12.734375l3.578125 0l0 19.078125l-3.859375 0l-7.6875 -12.4375l0 12.4375l-3.578125 0zm27.187805 -4.40625l3.640625 0.625q-0.703125 2.0 -2.21875 3.046875q-1.515625 1.046875 -3.796875 1.046875q-3.609375 0 -5.328125 -2.359375q-1.375 -1.890625 -1.375 -4.765625q0 -3.4375 1.796875 -5.375q1.796875 -1.953125 4.546875 -1.953125q3.078125 0 4.859375 2.046875q1.78125 2.03125 1.703125 6.234375l-9.15625 0q0.046875 1.625 0.890625 2.53125q0.84375 0.90625 2.109375 0.90625q0.859375 0 1.4375 -0.46875q0.59375 -0.46875 0.890625 -1.515625zm0.203125 -3.6875q-0.03125 -1.59375 -0.8125 -2.421875q-0.78125 -0.828125 -1.90625 -0.828125q-1.203125 0 -1.984375 0.875q-0.78125 0.875 -0.765625 2.375l5.46875 0zm12.949951 -5.734375l0 2.921875l-2.5 0l0 5.5625q0 1.703125 0.0625 1.984375q0.078125 0.28125 0.328125 0.46875q0.265625 0.171875 0.625 0.171875q0.515625 0 1.46875 -0.359375l0.3125 2.84375q-1.265625 0.546875 -2.890625 0.546875q-0.984375 0 -1.78125 -0.328125q-0.796875 -0.328125 -1.171875 -0.859375q-0.359375 -0.53125 -0.5 -1.421875q-0.125 -0.640625 -0.125 -2.578125l0 -6.03125l-1.671875 0l0 -2.921875l1.671875 0l0 -2.734375l3.671875 -2.140625l0 4.875l2.5 0zm5.111084 13.828125l-4.375 -13.828125l3.5625 0l2.59375 9.0625l2.375 -9.0625l3.53125 0l2.296875 9.0625l2.640625 -9.0625l3.609375 0l-4.4375 13.828125l-3.515625 0l-2.375 -8.890625l-2.34375 8.890625l-3.5625 0zm17.312256 -7.109375q0 -1.8125 0.890625 -3.515625q0.90625 -1.71875 2.546875 -2.609375q1.65625 -0.90625 3.6875 -0.90625q3.140625 0 5.140625 2.046875q2.0 2.03125 2.0 5.140625q0 3.140625 -2.03125 5.203125q-2.015625 2.0625 -5.078125 2.0625q-1.90625 0 -3.640625 -0.859375q-1.71875 -0.859375 -2.625 -2.515625q-0.890625 -1.65625 -0.890625 -4.046875zm3.75 0.203125q0 2.046875 0.96875 3.140625q0.984375 1.09375 2.421875 1.09375q1.421875 0 2.390625 -1.09375q0.984375 -1.09375 0.984375 -3.171875q0 -2.03125 -0.984375 -3.125q-0.96875 -1.09375 -2.390625 -1.09375q-1.4375 0 -2.421875 1.09375q-0.96875 1.09375 -0.96875 3.15625zm16.89209 6.90625l-3.671875 0l0 -13.828125l3.40625 0l0 1.96875q0.875 -1.390625 1.5625 -1.828125q0.703125 -0.453125 1.578125 -0.453125q1.25 0 2.421875 0.703125l-1.140625 3.1875q-0.921875 -0.609375 -1.71875 -0.609375q-0.765625 0 -1.296875 0.421875q-0.53125 0.421875 -0.84375 1.53125q-0.296875 1.109375 -0.296875 4.640625l0 4.265625zm6.73291 0l0 -19.078125l3.65625 0l0 10.125l4.28125 -4.875l4.5 0l-4.71875 5.0625l5.0625 8.765625l-3.9375 0l-3.484375 -6.203125l-1.703125 1.78125l0 4.421875l-3.65625 0z" fill-rule="nonzero"/><path fill="#000000" fill-opacity="0.0" d="m178.54068 135.32545l102.4252 110.834656" fill-rule="evenodd"/><path stroke="#595959" stroke-width="3.0" stroke-linejoin="round" stroke-linecap="butt" d="m178.54068 135.32545l90.20865 97.6151" fill-rule="evenodd"/><path fill="#595959" stroke="#595959" stroke-width="3.0" stroke-linecap="butt" d="m265.11017 236.30363l12.87915 6.6355286l-5.600769 -13.361679z" fill-rule="evenodd"/><path fill="#000000" fill-opacity="0.0" d="m161.81627 135.32545l102.425186 110.834656" fill-rule="evenodd"/><path stroke="#595959" stroke-width="3.0" stroke-linejoin="round" stroke-linecap="butt" d="m161.81627 135.32545l90.208664 97.6151" fill-rule="evenodd"/><path fill="#595959" stroke="#595959" stroke-width="3.0" stroke-linecap="butt" d="m248.38574 236.30363l12.87915 6.6355286l-5.600754 -13.361679z" fill-rule="evenodd"/><path fill="#000000" fill-opacity="0.0" d="m318.87665 294.9672l99.24408 99.24408" fill-rule="evenodd"/><path stroke="#595959" stroke-width="3.0" stroke-linejoin="round" stroke-linecap="butt" stroke-dasharray="12.0,9.0,3.0,9.0" d="m318.87665 294.9672l99.24408 99.24408" fill-rule="evenodd"/><path fill="#000000" fill-opacity="0.0" d="m298.79004 294.9672l99.24408 99.24408" fill-rule="evenodd"/><path stroke="#595959" stroke-width="3.0" stroke-linejoin="round" stroke-linecap="butt" stroke-dasharray="12.0,9.0,3.0,9.0" d="m298.79004 294.9672l99.24408 99.24408" fill-rule="evenodd"/><path fill="#000000" fill-opacity="0.0" d="m338.74277 294.64304l99.24411 99.24411" fill-rule="evenodd"/><path stroke="#595959" stroke-width="3.0" stroke-linejoin="round" stroke-linecap="butt" stroke-dasharray="12.0,9.0,3.0,9.0" d="m338.74277 294.64304l99.24411 99.24411" fill-rule="evenodd"/><path fill="#000000" fill-opacity="0.0" d="m599.9974 295.1299l-99.24408 99.24411" fill-rule="evenodd"/><path stroke="#595959" stroke-width="3.0" stroke-linejoin="round" stroke-linecap="butt" stroke-dasharray="12.0,9.0,3.0,9.0" d="m599.9974 295.1299l-99.24408 99.24411" fill-rule="evenodd"/><path fill="#000000" fill-opacity="0.0" d="m619.8635 294.48032l-99.24408 99.24408" fill-rule="evenodd"/><path stroke="#595959" stroke-width="3.0" stroke-linejoin="round" stroke-linecap="butt" stroke-dasharray="12.0,9.0,3.0,9.0" d="m619.8635 294.48032l-99.24408 99.24408" fill-rule="evenodd"/><path fill="#000000" fill-opacity="0.0" d="m638.91864 294.8058l-99.24408 99.24408" fill-rule="evenodd"/><path stroke="#595959" stroke-width="3.0" stroke-linejoin="round" stroke-linecap="butt" stroke-dasharray="12.0,9.0,3.0,9.0" d="m638.91864 294.8058l-99.24408 99.24408" fill-rule="evenodd"/><path fill="#000000" fill-opacity="0.0" d="m622.4829 246.16011l168.0 -110.834656" fill-rule="evenodd"/><path stroke="#595959" stroke-width="3.0" stroke-linejoin="round" stroke-linecap="butt" d="m622.4829 246.16011l152.97516 -100.92232" fill-rule="evenodd"/><path fill="#595959" stroke="#595959" stroke-width="3.0" stroke-linecap="butt" d="m778.1869 149.37396l8.635254 -11.633362l-14.092773 3.361023z" fill-rule="evenodd"/><path fill="#000000" fill-opacity="0.0" d="m621.20734 246.16011l-11.684998 -110.834656" fill-rule="evenodd"/><path stroke="#595959" stroke-width="3.0" stroke-linejoin="round" stroke-linecap="butt" d="m621.20734 246.16011l-9.797791 -92.93385" fill-rule="evenodd"/><path fill="#595959" stroke="#595959" stroke-width="3.0" stroke-linecap="butt" d="m616.33746 152.70671l-6.3553467 -13.019714l-3.5004272 14.058792z" fill-rule="evenodd"/><path fill="#000000" fill-opacity="0.0" d="m619.90027 246.16011l-191.3386 -110.834656" fill-rule="evenodd"/><path stroke="#595959" stroke-width="3.0" stroke-linejoin="round" stroke-linecap="butt" d="m619.90027 246.16011l-175.763 -101.81236" fill-rule="evenodd"/><path fill="#595959" stroke="#595959" stroke-width="3.0" stroke-linecap="butt" d="m446.62097 140.05997l-14.264313 -2.5362244l9.2968445 11.111786z" fill-rule="evenodd"/><path fill="#000000" fill-opacity="0.0" d="m196.36482 135.3202l102.42522 110.834656" fill-rule="evenodd"/><path stroke="#595959" stroke-width="3.0" stroke-linejoin="round" stroke-linecap="butt" d="m196.36482 135.3202l90.208664 97.6151" fill-rule="evenodd"/><path fill="#595959" stroke="#595959" stroke-width="3.0" stroke-linecap="butt" d="m282.9343 236.29839l12.879181 6.6355286l-5.6007996 -13.361679z" fill-rule="evenodd"/></g></svg>